<?xml version="1.0" encoding="UTF-8"?>
<svg id="Layer_1" xmlns="http://www.w3.org/2000/svg" xmlns:sodipodi="http://sodipodi.sourceforge.net/DTD/sodipodi-0.dtd" version="1.1" viewBox="0 0 100 125">
  <!-- Generator: Adobe Illustrator 29.0.0, SVG Export Plug-In . SVG Version: 2.1.0 Build 186)  -->
  <defs>
    <style>
      .st0 {
        font-family: MyriadPro-Regular, 'Myriad Pro';
        font-size: 12px;
      }
    </style>
  </defs>
  <path d="M46.7,5c-3.5,0-6.9.5-10.1,1.5h20.2c-3.2-1-6.6-1.5-10.1-1.5Z"/>
  <path d="M31.7,8.3c-1.1.5-2.2,1.1-3.3,1.8h36.2c-1.1-.6-2.1-1.2-3.3-1.8h-29.6Z"/>
  <path d="M25.8,11.8c-.7.6-1.5,1.2-2.2,1.8h45.9c-.7-.6-1.4-1.2-2.2-1.8,0,0-41.5,0-41.5,0Z"/>
  <path d="M21.9,15.4c-.5.6-1,1.2-1.5,1.8h52.6c-.5-.6-1.1-1.2-1.6-1.8,0,0-49.5,0-49.5,0Z"/>
  <path d="M19.1,18.9c-.4.6-.8,1.2-1.1,1.8h57.6c-.4-.6-.8-1.2-1.2-1.8H19.1Z"/>
  <path d="M17.1,22.5c-.3.6-.5,1.2-.7,1.8h61.2c-.3-.6-.6-1.2-.9-1.8H17.1Z"/>
  <path d="M15.7,26c-.2.6-.4,1.2-.5,1.8h63.7c-.2-.6-.4-1.2-.6-1.8H15.7Z"/>
  <path d="M14.9,29.6c-.1.6-.2,1.2-.3,1.8h65.2c-.1-.6-.3-1.2-.4-1.8,0,0-64.5,0-64.5,0Z"/>
  <path d="M14.5,33.1c0,.6,0,1.2,0,1.8h65.7c0-.6,0-1.2-.2-1.8,0,0-65.5,0-65.5,0Z"/>
  <path d="M14.5,36.7c0,.6.1,1.2.2,1.8h64.8c.2-.6.4-1.2.5-1.8H14.5Z"/>
  <path d="M15,40.3c.1.6.3,1.2.5,1.8h63.1c0-.6.2-1.2.4-1.8H15Z"/>
  <path d="M16.2,43.8c.2.6.5,1.2.7,1.8h62.7c-.2-.4-.5-.9-.7-1.3,0-.1-.1-.3-.2-.5,0,0-62.6,0-62.6,0Z"/>
  <path d="M17.8,47.4c.3.6.7,1.2,1,1.8h62.9c-.4-.6-.8-1.2-1.1-1.8,0,0-62.8,0-62.8,0Z"/>
  <path d="M20,50.9c.4.6.8,1.2,1.2,1.8h62.8c-.3-.6-.7-1.2-1.1-1.8,0,0-63,0-63,0Z"/>
  <path d="M22.5,54.5c.4.6.9,1.2,1.3,1.8h61.9c-.1-.5-.3-1.1-.6-1.8,0,0-62.6,0-62.6,0Z"/>
  <path d="M27.2,61.6c.3.6.6,1.2.8,1.8h51.2c-.1-.6-.3-1.2-.5-1.8H27.2Z"/>
  <path d="M28.7,65.1c.2.6.4,1.2.6,1.8h48.2c-.7-.4-1.6-.9-1.6-1.4,0-.2,0-.3.2-.3H28.7Z"/>
  <path d="M29.7,68.7c.1.6.2,1.2.3,1.8h46.7c.3-.5.8-1.1,1.4-1.8H29.7Z"/>
  <path d="M30.1,72.2c0,.6,0,1.2,0,1.8h45.9c-.1-.5-.2-1.1,0-1.8H30.1Z"/>
  <path d="M30.1,75.8c0,.6,0,1.2-.1,1.8h46.1c.3-.7.3-1.2.3-1.8,0,0-46.3,0-46.3,0Z"/>
  <path d="M29.7,79.3c0,.6-.2,1.2-.3,1.8h32.1c.2-.5.4-1,.8-1.3.2-.2.4-.3.6-.5,0,0-33.1,0-33.1,0Z"/>
  <path d="M66.3,79.3c2.8.8,6.1,2.7,8.6,0h-8.6Z"/>
  <path d="M29.1,82.9c-.1.6-.3,1.2-.4,1.8h32.1c0-.6.1-1.2.2-1.8,0,0-31.9,0-31.9,0Z"/>
  <path d="M29.5,86.4c.9.6,1.8,1.2,2.8,1.8h28.1c0-.6,0-1.2,0-1.8h-31.1Z"/>
  <path d="M36,90c1.5.7,3.2,1.2,4.8,1.8h19.6c0-.6,0-1.2,0-1.8h-24.5Z"/>
  <path d="M47.5,93.6c4.7,1,9.2,1.5,12.7,1.4,0-.5,0-.9,0-1.4h-12.8Z"/>
  <path d="M25,58c.4.6.8,1.2,1.1,1.8h52.8c1.4-2.3,5,1.4,6.6-1.8H25Z"/>
  <text class="st0" transform="translate(9.2 70.8)"><tspan x="0" y="0">Q</tspan></text>
</svg>